<svg height="480pt" viewBox="0 0 480 480" width="480pt" xmlns="http://www.w3.org/2000/svg" fill="currentColor">
  <path d="m240 384c-79.527344 0-144-64.472656-144-144s64.472656-144 144-144 144 64.472656 144 144c-.09375 79.492188-64.507812 143.90625-144 144zm0 0"/><path d="m232 432h16v48h-16zm0 0"/><path d="m232 0h16v48h-16zm0 0"/><path d="m329.070312 410.273438 13.855469-8 24 41.570312-13.855469 8zm0 0"/><path d="m113.078125 36.160156 13.855469-8 24 41.570313-13.859375 8zm0 0"/><path d="m402.28125 342.925781 8-13.855469 41.570312 24-8 13.855469zm0 0"/><path d="m28.152344 126.929688 8-13.855469 41.570312 23.996093-8 13.859376zm0 0"/><path d="m432 232h48v16h-48zm0 0"/><path d="m0 232h48v16h-48zm0 0"/><path d="m402.28125 137.070312 41.570312-23.996093 8 13.855469-41.574218 23.996093zm0 0"/><path d="m28.15625 353.070312 41.570312-23.996093 8 13.859375-41.574218 23.996094zm0 0"/><path d="m329.070312 69.722656 24-41.570312 13.855469 8-24 41.570312zm0 0"/><path d="m113.066406 443.847656 23.996094-41.574218 13.859375 8-23.996094 41.570312zm0 0"/>
</svg>
